<svg width="18" height="23" viewBox="0 0 18 23" fill="none" xmlns="http://www.w3.org/2000/svg">
<path d="M9.86992 21.1017C9.52524 21.4543 9.22861 21.7468 9 21.968C8.77139 21.7468 8.47476 21.4543 8.13008 21.1017C7.29841 20.2509 6.19128 19.0545 5.08614 17.6701C3.97914 16.2834 2.88623 14.723 2.07302 13.1439C1.25525 11.556 0.75 10.0059 0.75 8.625C0.75 6.54697 1.61109 4.54725 3.15497 3.06769C4.69993 1.5871 6.80191 0.75 9 0.75C11.1981 0.75 13.3001 1.5871 14.845 3.06769C16.3889 4.54725 17.25 6.54697 17.25 8.625C17.25 10.0059 16.7447 11.556 15.927 13.1439C15.1138 14.723 14.0209 16.2834 12.9139 17.6701C11.8087 19.0545 10.7016 20.2509 9.86992 21.1017ZM9 13.6875C10.3823 13.6875 11.7141 13.1616 12.7009 12.2159C13.6888 11.2692 14.25 9.97821 14.25 8.625C14.25 7.27179 13.6888 5.98081 12.7009 5.03411C11.7141 4.08845 10.3823 3.5625 9 3.5625C7.61767 3.5625 6.28587 4.08845 5.29909 5.03411C4.31123 5.98081 3.75 7.27179 3.75 8.625C3.75 9.97821 4.31123 11.2692 5.29909 12.2159C6.28587 13.1616 7.61767 13.6875 9 13.6875Z" fill="white" stroke="#262626" stroke-width="1.5"/>
</svg>
